HIERARCHY
ROOT newVegas:Hips
{
	OFFSET 0.00 0.00 0.00
	CHANNELS 6 Xposition Yposition Zposition Zrotation Yrotation Xrotation
	JOINT newVegas:Pelvis
	{
		OFFSET	0.0000	0.0000	0.0000
		CHANNELS 3 Zrotation Yrotation Xrotation
		JOINT newVegas:LeftUpLeg
		{
			OFFSET	18.7352	-5.6667	-4.5412
			CHANNELS 3 Zrotation Yrotation Xrotation
			JOINT newVegas:LeftLeg
			{
				OFFSET	2.1864	-31.8632	0.4931
				CHANNELS 3 Zrotation Yrotation Xrotation
				JOINT newVegas:LeftFoot
				{
					OFFSET	2.1864	-31.8632	-4.3364
					CHANNELS 3 Zrotation Yrotation Xrotation
					End Site
					{
						OFFSET 0.9430 -26.7220 15.0235
					}
				}
				JOINT newVegas:Left_PantLeg
				{
					OFFSET	1.2762	-8.9783	-1.1127
					CHANNELS 3 Yrotation Zrotation Xrotation
					End Site
					{
						OFFSET 0.0000 0.0000 0.0000
					}
				}
			}
		}
		JOINT newVegas:RightUpLeg
		{
			OFFSET	-18.7352	-5.6667	-4.5412
			CHANNELS 3 Zrotation Yrotation Xrotation
			JOINT newVegas:RightLeg
			{
				OFFSET	-2.1864	-31.8632	0.4931
				CHANNELS 3 Zrotation Yrotation Xrotation
				JOINT newVegas:RightFoot
				{
					OFFSET	-2.1864	-31.8632	-4.3364
					CHANNELS 3 Zrotation Yrotation Xrotation
					End Site
					{
						OFFSET -0.9430 -26.7220 15.0235
					}
				}
				JOINT newVegas:Right_PantLeg
				{
					OFFSET	-1.2745	-8.9784	-1.1123
					CHANNELS 3 Yrotation Zrotation Xrotation
					End Site
					{
						OFFSET 0.0000 0.0000 0.0000
					}
				}
			}
		}
	}
	JOINT newVegas:Spine
	{
		OFFSET	0.0000	10.2000	-0.2995
		CHANNELS 3 Zrotation Yrotation Xrotation
		JOINT newVegas:Spine1
		{
			OFFSET	0.0000	11.9000	-1.5166
			CHANNELS 3 Zrotation Yrotation Xrotation
			JOINT newVegas:Spine2
			{
				OFFSET	0.0000	13.6000	-2.8425
				CHANNELS 3 Zrotation Yrotation Xrotation
				JOINT newVegas:Neck
				{
					OFFSET	0.0000	9.6241	-2.8901
					CHANNELS 3 Zrotation Yrotation Xrotation
					JOINT newVegas:Head
					{
						OFFSET	0.0000	14.0688	-1.3519
						CHANNELS 3 Zrotation Yrotation Xrotation
						JOINT newVegas:Hair_Back
						{
							OFFSET	0.0000	3.2319	-17.5248
							CHANNELS 3 Yrotation Zrotation Xrotation
							End Site
							{
								OFFSET 0.0000 0.0000 0.0000
							}
						}
						JOINT newVegas:Hair_Front
						{
							OFFSET	0.0000	31.2604	4.5738
							CHANNELS 3 Yrotation Zrotation Xrotation
							JOINT newVegas:Hair_Front1
							{
								OFFSET	-0.0000	2.2841	11.9933
								CHANNELS 3 Yrotation Zrotation Xrotation
								End Site
								{
									OFFSET -0.0000 2.2841 11.9933
								}
							}
						}
						JOINT newVegas:Jowel
						{
							OFFSET	0.0000	-7.4582	6.8641
							CHANNELS 3 Yrotation Zrotation Xrotation
							End Site
							{
								OFFSET 0.0000 0.0000 0.0000
							}
						}
					}
				}
				JOINT newVegas:LeftShoulder
				{
					OFFSET	15.2630	10.9234	-0.5477
					CHANNELS 3 Zrotation Yrotation Xrotation
					JOINT newVegas:LeftArm
					{
						OFFSET	25.4386	-2.8306	-13.0325
						CHANNELS 3 Zrotation Yrotation Xrotation
						JOINT newVegas:LeftForeArm
						{
							OFFSET	29.5938	0.0000	-4.6732
							CHANNELS 3 Zrotation Yrotation Xrotation
							JOINT newVegas:LeftHand
							{
								OFFSET	27.8329	-0.0000	0.9543
								CHANNELS 3 Zrotation Yrotation Xrotation
								JOINT newVegas:LeftHandThumb1
								{
									OFFSET	4.7675	-2.6767	6.3974
									CHANNELS 3 Zrotation Yrotation Xrotation
									JOINT newVegas:LeftHandThumb2
									{
										OFFSET	6.6258	-0.2235	2.4714
										CHANNELS 3 Zrotation Yrotation Xrotation
										End Site
										{
											OFFSET 6.4812 0.0593 1.5368
										}
									}
								}
								JOINT newVegas:LeftHandIndex1
								{
									OFFSET	18.7619	0.1784	4.5311
									CHANNELS 3 Zrotation Yrotation Xrotation
									JOINT newVegas:LeftHandIndex2
									{
										OFFSET	3.1712	-0.3505	0.0977
										CHANNELS 3 Zrotation Yrotation Xrotation
										End Site
										{
											OFFSET 3.8076 -0.0346 0.4574
										}
									}
								}
								JOINT newVegas:LeftHandMiddle1
								{
									OFFSET	18.4614	0.2434	-0.6956
									CHANNELS 3 Zrotation Yrotation Xrotation
									JOINT newVegas:LeftHandMiddle2
									{
										OFFSET	3.3090	-0.3045	-0.1123
										CHANNELS 3 Zrotation Yrotation Xrotation
										End Site
										{
											OFFSET 4.5843 0.0577 -0.3304
										}
									}
								}
								JOINT newVegas:LeftHandRing1
								{
									OFFSET	17.5639	-0.0156	-4.8607
									CHANNELS 3 Zrotation Yrotation Xrotation
									JOINT newVegas:LeftHandRing2
									{
										OFFSET	2.5824	-0.7102	-0.5450
										CHANNELS 3 Zrotation Yrotation Xrotation
										End Site
										{
											OFFSET 3.0503 0.1191 -0.8848
										}
									}
								}
								JOINT newVegas:LeftHandPinky1
								{
									OFFSET	15.7130	-1.0583	-8.0499
									CHANNELS 3 Zrotation Yrotation Xrotation
									JOINT newVegas:LeftHandPinky2
									{
										OFFSET	2.2626	-0.3089	-1.1098
										CHANNELS 3 Zrotation Yrotation Xrotation
										End Site
										{
											OFFSET 2.2407 -0.1509 -1.2964
										}
									}
								}
							}
							JOINT newVegas:Left_Sleeve
							{
								OFFSET	0.2475	-0.6498	0.5865
								CHANNELS 3 Yrotation Zrotation Xrotation
								End Site
								{
									OFFSET 0.0000 0.0000 0.0000
								}
							}
							JOINT newVegas:Left_CapeC
							{
								OFFSET	15.9444	-8.6088	-6.3933
								CHANNELS 3 Yrotation Zrotation Xrotation
								End Site
								{
									OFFSET 0.0000 -8.6885 0.0000
								}
							}
						}
						JOINT newVegas:Left_CapeB
						{
							OFFSET	24.6945	-8.6088	-11.0665
							CHANNELS 3 Yrotation Zrotation Xrotation
							End Site
							{
								OFFSET 0.0000 -8.6885 0.0000
							}
						}
						JOINT newVegas:Left_CapeA
						{
							OFFSET	3.4315	-8.6088	-11.0665
							CHANNELS 3 Yrotation Zrotation Xrotation
							End Site
							{
								OFFSET 0.0000 -8.6885 -0.0000
							}
						}
					}
				}
				JOINT newVegas:RightShoulder
				{
					OFFSET	-15.2630	10.9234	-0.5477
					CHANNELS 3 Zrotation Yrotation Xrotation
					JOINT newVegas:RightArm
					{
						OFFSET	-25.4386	-2.8306	-13.0325
						CHANNELS 3 Zrotation Yrotation Xrotation
						JOINT newVegas:RightForeArm
						{
							OFFSET	-29.5938	-0.0000	-4.6732
							CHANNELS 3 Zrotation Yrotation Xrotation
							JOINT newVegas:RightHand
							{
								OFFSET	-27.8329	-0.0000	0.9543
								CHANNELS 3 Zrotation Yrotation Xrotation
								JOINT newVegas:RightHandThumb1
								{
									OFFSET	-4.7675	-2.6767	6.3974
									CHANNELS 3 Zrotation Yrotation Xrotation
									JOINT newVegas:RightHandThumb2
									{
										OFFSET	-6.6258	-0.2235	2.4714
										CHANNELS 3 Zrotation Yrotation Xrotation
										End Site
										{
											OFFSET -6.4812 0.0593 1.5368
										}
									}
								}
								JOINT newVegas:RightHandIndex1
								{
									OFFSET	-18.7619	0.1784	4.5311
									CHANNELS 3 Zrotation Yrotation Xrotation
									JOINT newVegas:RightHandIndex2
									{
										OFFSET	-3.1712	-0.3505	0.0977
										CHANNELS 3 Zrotation Yrotation Xrotation
										End Site
										{
											OFFSET -3.8076 -0.0346 0.4574
										}
									}
								}
								JOINT newVegas:RightHandMiddle1
								{
									OFFSET	-18.4614	0.2434	-0.6956
									CHANNELS 3 Zrotation Yrotation Xrotation
									JOINT newVegas:RightHandMiddle2
									{
										OFFSET	-3.3090	-0.3045	-0.1123
										CHANNELS 3 Zrotation Yrotation Xrotation
										End Site
										{
											OFFSET -4.5843 0.0577 -0.3304
										}
									}
								}
								JOINT newVegas:RightHandRing1
								{
									OFFSET	-17.5639	-0.0156	-4.8607
									CHANNELS 3 Zrotation Yrotation Xrotation
									JOINT newVegas:RightHandRing2
									{
										OFFSET	-2.5824	-0.7102	-0.5450
										CHANNELS 3 Zrotation Yrotation Xrotation
										End Site
										{
											OFFSET -3.0503 0.1191 -0.8848
										}
									}
								}
								JOINT newVegas:RightHandPinky1
								{
									OFFSET	-15.7130	-1.0583	-8.0499
									CHANNELS 3 Zrotation Yrotation Xrotation
									JOINT newVegas:RightHandPinky2
									{
										OFFSET	-2.2626	-0.3089	-1.1098
										CHANNELS 3 Zrotation Yrotation Xrotation
										End Site
										{
											OFFSET -2.2407 -0.1509 -1.2964
										}
									}
								}
							}
							JOINT newVegas:Right_CapeC
							{
								OFFSET	-15.9444	-8.6088	-6.3933
								CHANNELS 3 Yrotation Zrotation Xrotation
								End Site
								{
									OFFSET 0.0000 -8.6885 0.0000
								}
							}
							JOINT newVegas:Right_Sleeve
							{
								OFFSET	-0.2475	-0.6500	0.5865
								CHANNELS 3 Yrotation Zrotation Xrotation
								End Site
								{
									OFFSET 0.0000 0.0000 0.0000
								}
							}
						}
						JOINT newVegas:Right_CapeA
						{
							OFFSET	-3.4314	-8.6088	-11.0665
							CHANNELS 3 Yrotation Zrotation Xrotation
							End Site
							{
								OFFSET 0.0000 -8.6885 0.0000
							}
						}
						JOINT newVegas:Right_CapeB
						{
							OFFSET	-24.6943	-8.6088	-11.0665
							CHANNELS 3 Yrotation Zrotation Xrotation
							End Site
							{
								OFFSET 0.0000 -8.6885 0.0000
							}
						}
					}
				}
				JOINT newVegas:Left_Collar
				{
					OFFSET	18.6251	8.6555	8.8281
					CHANNELS 3 Yrotation Zrotation Xrotation
					End Site
					{
						OFFSET 14.7834 10.5404 -1.2595
					}
				}
				JOINT newVegas:Collar_Back
				{
					OFFSET	0.0000	15.6307	-20.1326
					CHANNELS 3 Yrotation Zrotation Xrotation
					End Site
					{
						OFFSET 0.0000 0.0000 0.0000
					}
				}
				JOINT newVegas:Left_Peck
				{
					OFFSET	17.2396	-5.1326	25.4826
					CHANNELS 3 Yrotation Zrotation Xrotation
					End Site
					{
						OFFSET 0.0000 0.0000 0.0000
					}
				}
				JOINT newVegas:Right_Peck
				{
					OFFSET	-17.2396	-5.1322	25.4826
					CHANNELS 3 Yrotation Zrotation Xrotation
					End Site
					{
						OFFSET 0.0000 0.0000 0.0000
					}
				}
				JOINT newVegas:Right_Collar
				{
					OFFSET	-18.6251	8.6558	8.8281
					CHANNELS 3 Yrotation Zrotation Xrotation
					End Site
					{
						OFFSET -14.7834 10.5400 -1.2595
					}
				}
			}
		}
		JOINT newVegas:Belly
		{
			OFFSET	0.0000	-6.5404	9.0143
			CHANNELS 3 Yrotation Zrotation Xrotation
			End Site
			{
				OFFSET 0.0000 0.0000 0.0000
			}
		}
	}
	JOINT newVegas:ElvisFacialAnim_Joint
	{
		OFFSET	1.0000	-95.3301	-8.8258
		CHANNELS 3 Zrotation Yrotation Xrotation
		End Site
		{
			OFFSET 0.0000 0.0000 0.0000
		}
	}
}
MOTION
Frames: 8
Frame Time: 0.0333333
-0.7592 121.7804 5.7185 -179.7533 -2.0822 -8.8103 0.0000 -0.0000 0.0000 -13.9288 10.8358 -143.4036 17.4359 -7.8056 125.5886 -4.5422 -0.8707 52.0999 -0.0000 0.0000 -0.0000 1.5129 -0.6353 13.2229 -6.4829 -7.4548 35.8043 -2.5330 4.8064 55.0764 0.0000 0.0000 0.0000 -13.2649 3.1821 10.6260 -2.3275 0.6462 -0.9278 -2.3363 0.7798 -0.9624 -2.9308 0.1991 -10.4694 3.1842 -2.2922 -0.7236 -0.0000 -0.0000 -0.0000 0.0000 -0.0000 0.0000 -0.0000 0.0000 0.0000 0.0000 0.0000 -0.0000 9.4141 1.7064 1.2502 85.9838 -48.4949 -130.4438 0.0001 -65.9634 -0.0000 -14.8978 -9.1973 56.7316 -7.1795 -8.4704 -25.0004 -7.2898 17.0846 2.0260 -6.8406 6.4129 -0.3124 -20.2254 5.3426 0.9015 -13.4272 2.7139 -1.0220 -26.0170 -2.1098 -0.9920 -11.5964 -6.7938 -2.0880 -40.9267 -6.4182 -8.8018 -21.7707 -21.3520 -3.3397 -26.8486 -6.0550 -13.7616 -0.0000 0.0000 0.0000 0.0000 0.0000 0.0000 -0.0000 -0.0000 -0.0000 -0.0000 -0.0000 -0.0000 -44.8059 -14.7083 18.3221 -28.6673 29.4111 -122.9320 0.0000 34.4248 -0.0000 -60.4766 50.9627 53.8144 17.0746 30.6621 -70.9067 -0.0482 2.8069 3.0046 -17.1710 3.0045 3.2120 10.6993 -5.0628 0.6368 -18.3558 -0.5296 1.2771 14.4807 2.3044 -0.5682 -27.5232 7.5992 0.9283 21.2878 5.0424 -4.9857 -23.6477 12.1654 -13.9841 6.9189 4.0445 -3.9163 -0.0000 -0.0000 0.0000 0.0000 0.0000 0.0000 -0.0000 -0.0000 0.0000 -0.0000 -0.0001 -0.0000 0.0000 -0.0000 0.0000 0.0000 0.0000 -0.0000 -0.0000 0.0000 0.0000 -0.0000 -0.0000 0.0000 -0.0000 -0.0000 -0.0000 0.0000 -0.0000 0.0000 0.0000 -0.0000 0.0000 
-0.8189 119.8466 6.8519 177.5058 22.6935 -8.1922 0.0000 -0.0000 0.0000 -18.9373 12.8152 -140.3610 16.7100 -7.9103 128.1127 -2.0474 1.4141 45.8586 -0.0000 0.0000 -0.0000 3.6826 -3.5457 8.5350 -6.8303 -6.4591 37.9949 -16.8427 -6.0333 41.6748 0.0000 0.0000 0.0000 -13.1081 -0.5908 11.4299 -2.3271 -0.1582 -1.0480 -2.3525 -0.0139 -1.0604 -1.6475 0.3133 -10.2630 3.7599 -0.2257 0.2272 -0.0000 -0.0000 -0.0000 0.0000 -0.0000 0.0000 -0.0000 0.0000 0.0000 0.0000 0.0000 -0.0000 14.6798 3.8413 1.8250 78.0967 -46.5460 -127.0859 0.0001 -67.9172 -0.0001 -14.6370 -11.0103 64.4187 -7.1795 -8.4704 -25.0004 -7.2898 17.0846 2.0260 -6.8406 6.4129 -0.3124 -20.2254 5.3426 0.9015 -13.4272 2.7139 -1.0220 -26.0171 -2.1098 -0.9920 -11.5964 -6.7938 -2.0880 -40.9267 -6.4183 -8.8018 -21.7707 -21.3520 -3.3397 -26.8486 -6.0550 -13.7616 -0.0000 0.0000 0.0000 0.0000 0.0000 0.0000 -0.0000 -0.0000 -0.0000 -0.0000 -0.0000 -0.0000 -43.9365 -15.2975 17.2034 -19.8973 30.2086 -117.5148 0.0000 40.4815 0.0000 -49.4959 52.7441 62.3190 16.5287 30.6895 -72.1820 0.1145 2.7839 2.7841 -16.8243 3.3992 3.1192 10.2462 -5.0650 0.6226 -18.0496 -0.1552 1.2195 14.0358 2.2975 -0.5540 -27.2430 7.9255 0.8168 20.8788 5.0169 -4.9028 -23.4243 12.4250 -14.0391 6.7243 4.0364 -3.8180 -0.0000 -0.0000 0.0000 0.0000 0.0000 0.0000 -0.0000 -0.0000 0.0000 -0.0000 -0.0001 -0.0000 0.0000 -0.0000 0.0000 0.0000 0.0000 -0.0000 -0.0000 0.0000 0.0000 -0.0000 -0.0000 0.0000 -0.0000 -0.0000 -0.0000 0.0000 -0.0000 0.0000 0.0000 -0.0000 0.0000 
-1.2780 119.0188 7.5881 173.9693 46.3964 -9.3911 0.0000 -0.0000 0.0000 -19.9977 17.5798 -133.7674 14.2874 -4.0227 126.5945 -4.5761 1.6659 43.6421 -0.0000 0.0000 -0.0000 4.2472 -5.5045 12.9275 -8.4152 -7.6463 33.6781 -22.7208 -19.1124 33.0752 0.0000 0.0000 0.0000 -12.9338 -3.6976 11.8254 -2.2890 -0.9397 -1.2227 -2.3325 -0.7869 -1.2155 -1.0123 0.5727 -9.8859 5.0616 2.1412 1.1144 -0.0000 -0.0000 -0.0000 0.0000 -0.0000 0.0000 -0.0000 0.0000 0.0000 0.0000 0.0000 -0.0000 17.2223 5.2888 2.1240 73.2029 -45.1972 -124.7728 0.0001 -69.5685 -0.0001 -16.5605 -13.1918 70.2926 -7.1795 -8.4704 -25.0004 -7.2898 17.0846 2.0260 -6.8406 6.4129 -0.3124 -20.2254 5.3426 0.9015 -13.4272 2.7139 -1.0220 -26.0171 -2.1098 -0.9920 -11.5964 -6.7938 -2.0880 -40.9267 -6.4183 -8.8018 -21.7707 -21.3520 -3.3397 -26.8486 -6.0550 -13.7616 -0.0000 0.0000 0.0000 0.0000 0.0000 0.0000 -0.0000 -0.0000 -0.0000 -0.0000 -0.0000 -0.0000 -42.8939 -15.4119 16.5931 -13.3489 29.0040 -114.4624 0.0000 45.1881 0.0000 -39.8844 53.4666 69.0157 16.6617 30.6107 -72.0521 0.1018 2.7923 2.8106 -16.8677 3.3683 3.1512 10.2912 -5.0648 0.6240 -18.0831 -0.1943 1.2256 14.0811 2.2982 -0.5555 -27.2737 7.8917 0.8285 20.9197 5.0194 -4.9111 -23.4484 12.4028 -14.0224 6.7436 4.0372 -3.8278 -0.0000 -0.0000 0.0000 0.0000 0.0000 0.0000 -0.0000 -0.0000 0.0000 -0.0000 -0.0001 -0.0000 0.0000 -0.0000 0.0000 0.0000 0.0000 -0.0000 -0.0000 0.0000 0.0000 -0.0000 -0.0000 0.0000 -0.0000 -0.0000 -0.0000 0.0000 -0.0000 0.0000 0.0000 -0.0000 0.0000 
-1.9803 118.8236 7.9575 165.2658 68.7248 -16.6601 0.0000 -0.0000 0.0000 -18.4633 22.9200 -124.8767 9.8628 1.6208 123.3056 -7.8539 0.7939 40.3870 -0.0000 0.0000 -0.0000 3.7035 -6.6476 15.2975 -8.4262 -5.2718 36.3720 -17.2135 -28.7802 26.3304 0.0000 0.0000 0.0000 -12.7025 -6.3076 12.0559 -2.2205 -1.5862 -1.4575 -2.2826 -1.4256 -1.4350 -0.9778 0.7683 -9.6483 6.8878 3.0303 0.5442 -0.0000 -0.0000 -0.0000 0.0000 -0.0000 0.0000 -0.0000 0.0000 0.0000 0.0000 0.0000 -0.0000 16.5905 5.8994 2.0761 71.5469 -45.2729 -122.7854 0.0001 -71.6622 -0.0001 -17.0586 -13.7248 72.9473 -7.1795 -8.4704 -25.0004 -7.2897 17.0846 2.0260 -6.8406 6.4129 -0.3124 -20.2254 5.3426 0.9015 -13.4272 2.7139 -1.0220 -26.0171 -2.1098 -0.9920 -11.5964 -6.7938 -2.0880 -40.9267 -6.4182 -8.8018 -21.7707 -21.3520 -3.3397 -26.8486 -6.0550 -13.7616 -0.0000 0.0000 0.0000 0.0000 0.0000 0.0000 -0.0000 -0.0000 -0.0000 -0.0000 -0.0000 -0.0000 -41.4902 -15.6341 16.4809 -10.0331 27.1764 -114.7799 0.0000 48.3402 0.0000 -34.3970 52.9752 71.0809 17.2043 30.4122 -71.4315 0.0350 2.8182 2.9238 -17.0400 3.1974 3.2565 10.5000 -5.0637 0.6306 -18.2229 -0.3806 1.2534 14.2883 2.3014 -0.5621 -27.4026 7.7307 0.8828 21.1085 5.0312 -4.9494 -23.5528 12.2897 -13.9671 6.8333 4.0409 -3.8731 -0.0000 -0.0000 0.0000 0.0000 0.0000 0.0000 -0.0000 -0.0000 0.0000 -0.0000 -0.0001 -0.0000 0.0000 -0.0000 0.0000 0.0000 0.0000 -0.0000 -0.0000 0.0000 0.0000 -0.0000 -0.0000 0.0000 -0.0000 -0.0000 -0.0000 0.0000 -0.0000 0.0000 0.0000 -0.0000 0.0000 
-2.1985 119.0179 8.3209 79.6033 84.4117 -101.8956 0.0000 -0.0000 0.0000 -14.9667 28.4889 -114.3606 5.7541 5.8178 120.2699 -7.5115 0.7672 35.3469 -0.0000 0.0000 -0.0000 2.4715 -6.5450 13.2896 -4.9790 0.0304 46.2133 -8.8303 -31.3688 26.4896 0.0000 0.0000 0.0000 -12.7730 -7.9923 12.4645 -2.1579 -1.9476 -1.6885 -2.2354 -1.7774 -1.6581 -1.2941 0.7424 -9.8017 8.6514 1.8052 -2.0858 -0.0000 -0.0000 -0.0000 0.0000 -0.0000 0.0000 -0.0000 0.0000 0.0000 0.0000 0.0000 -0.0000 14.2078 6.0257 1.8221 72.5094 -46.9533 -121.6218 0.0001 -74.6115 -0.0001 -13.9944 -11.9882 71.4931 -7.1795 -8.4704 -25.0003 -7.2898 17.0846 2.0260 -6.8406 6.4129 -0.3124 -20.2254 5.3426 0.9015 -13.4272 2.7139 -1.0220 -26.0170 -2.1098 -0.9920 -11.5964 -6.7938 -2.0880 -40.9267 -6.4183 -8.8018 -21.7707 -21.3520 -3.3397 -26.8486 -6.0550 -13.7616 -0.0000 0.0000 0.0000 0.0000 0.0000 0.0000 -0.0000 -0.0000 -0.0000 -0.0000 -0.0000 -0.0000 -39.5732 -17.1369 15.7832 -10.0191 24.9663 -115.9851 0.0000 48.9429 0.0000 -36.0083 50.3996 65.9928 17.9313 30.1089 -71.0690 0.0099 2.8501 2.9973 -17.1322 3.1088 3.3928 10.6084 -5.0632 0.6340 -18.2831 -0.5061 1.2694 14.3991 2.3031 -0.5656 -27.4603 7.6242 0.9164 21.2072 5.0373 -4.9694 -23.6043 12.2346 -13.9012 6.8800 4.0429 -3.8966 -0.0000 -0.0000 0.0000 0.0000 0.0000 0.0000 -0.0000 -0.0000 0.0000 -0.0000 -0.0001 -0.0000 0.0000 -0.0000 0.0000 0.0000 0.0000 -0.0000 -0.0000 0.0000 0.0000 -0.0000 -0.0000 0.0000 -0.0000 -0.0000 -0.0000 0.0000 -0.0000 0.0000 0.0000 -0.0000 0.0000 
-2.0030 120.0014 9.2370 12.5923 67.6789 -169.2599 0.0000 -0.0000 0.0000 -10.1602 33.3102 -103.8675 5.3259 6.6007 119.8797 -3.4376 1.6709 31.1868 -0.0000 0.0000 -0.0000 2.0022 -5.8356 8.1602 -1.6569 1.9985 58.5118 -6.2660 -27.0482 39.2597 0.0000 0.0000 0.0000 -13.6355 -8.1914 12.9782 -2.1385 -1.9474 -1.8322 -2.2220 -1.7663 -1.8028 -1.7979 0.6149 -10.2836 9.9163 0.0031 -4.8821 -0.0000 -0.0000 -0.0000 0.0000 -0.0000 0.0000 -0.0000 0.0000 0.0000 0.0000 0.0000 -0.0000 11.9854 6.2619 1.6039 75.5738 -50.1249 -122.8189 0.0001 -77.2947 -0.0001 -10.1316 -10.7333 67.5975 -7.1795 -8.4704 -25.0004 -7.2898 17.0846 2.0260 -6.8406 6.4129 -0.3125 -20.2254 5.3426 0.9015 -13.4272 2.7139 -1.0220 -26.0171 -2.1098 -0.9920 -11.5964 -6.7938 -2.0880 -40.9267 -6.4182 -8.8018 -21.7707 -21.3520 -3.3397 -26.8486 -6.0550 -13.7616 -0.0000 0.0000 0.0000 0.0000 0.0000 0.0000 -0.0000 -0.0000 -0.0000 -0.0000 -0.0000 -0.0000 -36.9860 -20.0294 13.8433 -12.3111 22.5586 -115.5730 0.0000 47.1469 0.0000 -42.2009 46.3968 56.8565 18.5020 29.8568 -71.1743 0.0527 2.8735 2.9797 -17.0674 3.1731 3.4971 10.5276 -5.0636 0.6314 -18.2064 -0.4863 1.2617 14.3251 2.3019 -0.5632 -27.3931 7.6447 0.9053 21.1360 5.0328 -4.9550 -23.5589 12.2836 -13.8581 6.8452 4.0414 -3.8791 -0.0000 -0.0000 0.0000 0.0000 0.0000 0.0000 -0.0000 -0.0000 0.0000 -0.0000 -0.0001 -0.0000 0.0000 -0.0000 0.0000 0.0000 0.0000 -0.0000 -0.0000 0.0000 0.0000 -0.0000 -0.0000 0.0000 -0.0000 -0.0000 -0.0000 0.0000 -0.0000 0.0000 0.0000 -0.0000 0.0000 
-2.1796 121.8941 10.4203 5.2619 47.1533 -177.0449 0.0000 -0.0000 0.0000 -5.8421 34.9554 -97.9856 8.7649 3.7391 122.8282 2.6574 1.1872 30.8694 -0.0000 0.0000 -0.0000 2.7120 -5.1917 3.3464 -4.0386 0.2825 69.7654 -5.9429 -17.0702 56.6102 0.0000 0.0000 0.0000 -14.8251 -6.9714 13.0794 -2.2043 -1.6746 -1.8674 -2.2829 -1.4841 -1.8452 -2.2750 0.4674 -11.0231 10.0415 -1.5436 -5.6493 -0.0000 -0.0000 -0.0000 0.0000 -0.0000 0.0000 -0.0000 0.0000 0.0000 0.0000 0.0000 -0.0000 10.6668 6.9727 1.5455 80.5095 -53.8960 -126.5373 0.0002 -78.1111 -0.0002 -8.7061 -13.5211 65.0636 -7.1795 -8.4704 -25.0004 -7.2898 17.0846 2.0260 -6.8406 6.4129 -0.3125 -20.2254 5.3426 0.9015 -13.4272 2.7139 -1.0220 -26.0171 -2.1098 -0.9920 -11.5964 -6.7938 -2.0880 -40.9267 -6.4183 -8.8018 -21.7707 -21.3520 -3.3397 -26.8486 -6.0550 -13.7616 -0.0000 0.0000 0.0000 0.0000 0.0000 0.0000 -0.0000 -0.0000 -0.0000 -0.0000 -0.0000 -0.0000 -34.2208 -22.6723 11.5142 -16.4896 21.2561 -116.8849 0.0000 44.6469 0.0000 -44.1113 43.8831 52.7698 18.7995 29.9307 -70.8831 0.0655 2.8794 2.9688 -17.0051 3.1676 3.5322 10.4952 -5.0638 0.6304 -18.1542 -0.4967 1.2586 14.2956 2.3015 -0.5623 -27.3487 7.6379 0.9036 21.1079 5.0311 -4.9493 -23.5324 12.2937 -13.8497 6.8310 4.0408 -3.8719 -0.0000 -0.0000 0.0000 0.0000 0.0000 0.0000 -0.0000 -0.0000 0.0000 -0.0000 -0.0001 -0.0000 0.0000 -0.0000 0.0000 0.0000 0.0000 -0.0000 -0.0000 0.0000 0.0000 -0.0000 -0.0000 0.0000 -0.0000 -0.0000 -0.0000 0.0000 -0.0000 0.0000 0.0000 -0.0000 0.0000 
-3.5485 123.2968 11.5762 2.6025 25.0734 -179.6638 0.0000 -0.0000 0.0000 -4.4908 31.6277 -99.7331 12.9955 -1.4805 127.0744 9.6682 -1.2018 32.6180 -0.0000 0.0000 -0.0000 4.1038 -4.5436 -0.4082 -9.9429 -1.1869 79.7161 -3.9308 -6.7609 68.7642 0.0000 0.0000 0.0000 -15.3985 -5.2466 12.7545 -2.4082 -1.2963 -1.8150 -2.4751 -1.0978 -1.8019 -2.4331 0.1303 -12.0388 8.5148 -3.8991 -5.0676 -0.0000 -0.0000 -0.0000 0.0000 -0.0000 0.0000 -0.0000 0.0000 0.0000 0.0000 0.0000 -0.0000 10.1466 8.3639 1.6306 85.8180 -56.9114 -130.5602 0.0002 -77.5182 -0.0002 -9.1289 -18.7233 65.6521 -7.1795 -8.4704 -25.0004 -7.2898 17.0846 2.0260 -6.8406 6.4129 -0.3125 -20.2254 5.3426 0.9015 -13.4272 2.7139 -1.0220 -26.0171 -2.1098 -0.9920 -11.5964 -6.7938 -2.0880 -40.9267 -6.4182 -8.8018 -21.7707 -21.3520 -3.3397 -26.8486 -6.0550 -13.7616 -0.0000 0.0000 0.0000 0.0000 0.0000 0.0000 -0.0000 -0.0000 -0.0000 -0.0000 -0.0000 -0.0000 -33.3879 -23.6736 10.6125 -22.1168 22.0429 -126.8110 0.0000 43.5210 -0.0000 -36.8849 44.1044 58.8131 19.2397 30.0833 -69.7614 0.0060 2.8862 3.0400 -17.0597 2.9810 3.5744 10.6467 -5.0631 0.6351 -18.2164 -0.6615 1.2784 14.4437 2.3038 -0.5670 -27.4101 7.4965 0.9470 21.2445 5.0397 -4.9770 -23.5914 12.1923 -13.8317 6.8962 4.0435 -3.9048 -0.0000 -0.0000 0.0000 0.0000 0.0000 0.0000 -0.0000 -0.0000 0.0000 -0.0000 -0.0001 -0.0000 0.0000 -0.0000 0.0000 0.0000 0.0000 -0.0000 -0.0000 0.0000 0.0000 -0.0000 -0.0000 0.0000 -0.0000 -0.0000 -0.0000 0.0000 -0.0000 0.0000 0.0000 -0.0000 0.0000 
